<svg width="798" height="768" viewBox="0 0 798 768" fill="none" xmlns="http://www.w3.org/2000/svg">
<path d="M787.5 291.5C785 279 772.5 271.5 760 271.5C722.5 276.5 687.5 259 670 226.5C652.5 194 655 156.5 677.5 126.5C685 116.5 685 101.5 675 94C630 51.5 572.5 19 512.5 1.5C500 -1 487.5 4 482.5 16.5C467.5 51.5 435 71.5 400 71.5C365 71.5 330 49 317.5 16.5C312.5 4 300 -1 287.5 1.5C227.5 19 170 51.5 125 94C115 104 115 116.5 122.5 126.5C145 156.5 147.5 194 130 226.5C112.5 259 77.5 276.5 40 271.5C27.5 269 15 279 12.5 291.5C5 321.5 0 354 0 384C0 414 5 446.5 12.5 476.5C15 489 27.5 496.5 40 496.5C75 491.5 110 509 127.5 541.5C145 574 142.5 611.5 120 641.5C112.5 651.5 112.5 666.5 122.5 674C167.5 716.5 225 749 285 766.5C297.5 769 310 764 315 751.5C330 716.5 362.5 696.5 397.5 696.5C432.5 696.5 467.5 719 480 751.5C485 761.5 492.5 766.5 502.5 766.5C505 766.5 507.5 766.5 510 766.5C570 749 625 716.5 672.5 674C682.5 664 682.5 651.5 675 641.5C652.5 611.5 650 574 667.5 541.5C685 509 720 491.5 757.5 496.5C770 499 782.5 489 785 476.5C792.5 444 797.5 414 797.5 384C797.5 354 795 321.5 787.5 291.5ZM410 606.5C407.5 609 402.5 609 400 609C397.5 609 392.5 609 390 606.5C302.5 566.5 200 494 200 274C200 266.5 205 259 210 254C217.5 249 225 249 232.5 251.5C287.5 269 342.5 254 382.5 216.5C392.5 206.5 407.5 206.5 417.5 216.5C457.5 254 512.5 269 567.5 251.5C575 249 582.5 251.5 590 254C597.5 259 600 266.5 600 274C600 494 497.5 566.5 410 606.5Z" fill="#ffff"/>
</svg>
